<mxfile host="app.diagrams.net" modified="2023-01-15T11:49:03.407Z" agent="5.0 (Windows NT 10.0; Win64; x64) AppleWebKit/537.36 (KHTML, like Gecko) Chrome/109.0.0.0 Safari/537.36" etag="7UzjpLiEa30l6NJFBkxg" version="20.4.2" type="github">
  <diagram id="gHxE6tDvcV_6_EFhUJTS" name="第 1 页">
    <mxGraphModel dx="1038" dy="1716" grid="1" gridSize="10" guides="1" tooltips="1" connect="1" arrows="1" fold="1" page="1" pageScale="1" pageWidth="827" pageHeight="1169" math="0" shadow="0">
      <root>
        <mxCell id="0" />
        <mxCell id="1" parent="0" />
        <mxCell id="qVMzXbElNukYsMj70MFZ-12" style="edgeStyle=orthogonalEdgeStyle;rounded=0;orthogonalLoop=1;jettySize=auto;html=1;entryX=0.5;entryY=0;entryDx=0;entryDy=0;fontSize=24;" parent="1" source="qVMzXbElNukYsMj70MFZ-2" target="qVMzXbElNukYsMj70MFZ-3" edge="1">
          <mxGeometry relative="1" as="geometry">
            <Array as="points">
              <mxPoint x="140" y="-240" />
              <mxPoint x="140" y="-240" />
            </Array>
          </mxGeometry>
        </mxCell>
        <mxCell id="qVMzXbElNukYsMj70MFZ-2" value="&lt;font style=&quot;font-size: 24px;&quot;&gt;终端&lt;/font&gt;" style="rounded=1;whiteSpace=wrap;html=1;strokeWidth=2;fillWeight=4;hachureGap=8;hachureAngle=45;fillColor=#1ba1e2;sketch=1;" parent="1" vertex="1">
          <mxGeometry x="80" y="-320" width="120" height="60" as="geometry" />
        </mxCell>
        <mxCell id="qVMzXbElNukYsMj70MFZ-13" style="edgeStyle=orthogonalEdgeStyle;rounded=0;orthogonalLoop=1;jettySize=auto;html=1;entryX=0.5;entryY=1;entryDx=0;entryDy=0;fontSize=24;" parent="1" source="qVMzXbElNukYsMj70MFZ-3" target="qVMzXbElNukYsMj70MFZ-2" edge="1">
          <mxGeometry relative="1" as="geometry" />
        </mxCell>
        <mxCell id="qVMzXbElNukYsMj70MFZ-14" value="" style="edgeStyle=orthogonalEdgeStyle;rounded=0;orthogonalLoop=1;jettySize=auto;html=1;fontSize=24;" parent="1" source="qVMzXbElNukYsMj70MFZ-3" target="qVMzXbElNukYsMj70MFZ-4" edge="1">
          <mxGeometry relative="1" as="geometry" />
        </mxCell>
        <mxCell id="qVMzXbElNukYsMj70MFZ-3" value="&lt;font style=&quot;font-size: 24px;&quot;&gt;前端路由&lt;/font&gt;" style="rounded=1;whiteSpace=wrap;html=1;strokeWidth=2;fillWeight=4;hachureGap=8;hachureAngle=45;fillColor=#ffe6cc;sketch=1;strokeColor=#d79b00;" parent="1" vertex="1">
          <mxGeometry x="80" y="-210" width="120" height="60" as="geometry" />
        </mxCell>
        <mxCell id="qVMzXbElNukYsMj70MFZ-15" style="edgeStyle=orthogonalEdgeStyle;rounded=0;orthogonalLoop=1;jettySize=auto;html=1;entryX=0.5;entryY=1;entryDx=0;entryDy=0;fontSize=24;" parent="1" source="qVMzXbElNukYsMj70MFZ-4" target="qVMzXbElNukYsMj70MFZ-3" edge="1">
          <mxGeometry relative="1" as="geometry" />
        </mxCell>
        <mxCell id="qVMzXbElNukYsMj70MFZ-16" value="" style="edgeStyle=orthogonalEdgeStyle;rounded=0;orthogonalLoop=1;jettySize=auto;html=1;fontSize=24;" parent="1" source="qVMzXbElNukYsMj70MFZ-4" target="qVMzXbElNukYsMj70MFZ-5" edge="1">
          <mxGeometry relative="1" as="geometry" />
        </mxCell>
        <mxCell id="qVMzXbElNukYsMj70MFZ-4" value="&lt;font style=&quot;font-size: 24px;&quot;&gt;页面&lt;/font&gt;" style="rounded=1;whiteSpace=wrap;html=1;strokeWidth=2;fillWeight=4;hachureGap=8;hachureAngle=45;fillColor=#fff2cc;sketch=1;strokeColor=#d6b656;" parent="1" vertex="1">
          <mxGeometry x="80" y="-100" width="120" height="60" as="geometry" />
        </mxCell>
        <mxCell id="qVMzXbElNukYsMj70MFZ-17" value="" style="edgeStyle=orthogonalEdgeStyle;rounded=0;orthogonalLoop=1;jettySize=auto;html=1;fontSize=24;" parent="1" source="qVMzXbElNukYsMj70MFZ-5" target="qVMzXbElNukYsMj70MFZ-6" edge="1">
          <mxGeometry relative="1" as="geometry" />
        </mxCell>
        <mxCell id="qVMzXbElNukYsMj70MFZ-22" style="edgeStyle=orthogonalEdgeStyle;rounded=0;orthogonalLoop=1;jettySize=auto;html=1;entryX=0.5;entryY=1;entryDx=0;entryDy=0;fontSize=24;" parent="1" source="qVMzXbElNukYsMj70MFZ-5" target="qVMzXbElNukYsMj70MFZ-4" edge="1">
          <mxGeometry relative="1" as="geometry" />
        </mxCell>
        <mxCell id="qVMzXbElNukYsMj70MFZ-5" value="&lt;font style=&quot;font-size: 24px;&quot;&gt;状态管理&lt;/font&gt;" style="rounded=1;whiteSpace=wrap;html=1;strokeWidth=2;fillWeight=4;hachureGap=8;hachureAngle=45;fillColor=#d5e8d4;sketch=1;strokeColor=#82b366;" parent="1" vertex="1">
          <mxGeometry x="80" y="10" width="120" height="60" as="geometry" />
        </mxCell>
        <mxCell id="qVMzXbElNukYsMj70MFZ-18" value="" style="edgeStyle=orthogonalEdgeStyle;rounded=0;orthogonalLoop=1;jettySize=auto;html=1;fontSize=24;" parent="1" source="qVMzXbElNukYsMj70MFZ-6" target="qVMzXbElNukYsMj70MFZ-11" edge="1">
          <mxGeometry relative="1" as="geometry">
            <Array as="points">
              <mxPoint x="140" y="240" />
              <mxPoint x="140" y="240" />
            </Array>
          </mxGeometry>
        </mxCell>
        <mxCell id="qVMzXbElNukYsMj70MFZ-21" style="edgeStyle=orthogonalEdgeStyle;rounded=0;orthogonalLoop=1;jettySize=auto;html=1;entryX=0.5;entryY=1;entryDx=0;entryDy=0;fontSize=24;" parent="1" source="qVMzXbElNukYsMj70MFZ-6" target="qVMzXbElNukYsMj70MFZ-5" edge="1">
          <mxGeometry relative="1" as="geometry" />
        </mxCell>
        <mxCell id="qVMzXbElNukYsMj70MFZ-6" value="&lt;font style=&quot;font-size: 24px;&quot;&gt;API接口层&lt;/font&gt;" style="rounded=1;whiteSpace=wrap;html=1;strokeWidth=2;fillWeight=4;hachureGap=8;hachureAngle=45;fillColor=#e1d5e7;sketch=1;strokeColor=#9673a6;" parent="1" vertex="1">
          <mxGeometry x="80" y="122" width="120" height="60" as="geometry" />
        </mxCell>
        <mxCell id="qVMzXbElNukYsMj70MFZ-7" value="&lt;font style=&quot;font-size: 24px;&quot;&gt;数据库&lt;/font&gt;" style="rounded=1;whiteSpace=wrap;html=1;strokeWidth=2;fillWeight=4;hachureGap=8;hachureAngle=45;fillColor=#dae8fc;sketch=1;gradientColor=#7ea6e0;strokeColor=#6c8ebf;" parent="1" vertex="1">
          <mxGeometry x="320" y="-210" width="120" height="60" as="geometry" />
        </mxCell>
        <mxCell id="qVMzXbElNukYsMj70MFZ-23" value="" style="edgeStyle=orthogonalEdgeStyle;rounded=0;orthogonalLoop=1;jettySize=auto;html=1;fontSize=24;" parent="1" source="qVMzXbElNukYsMj70MFZ-8" target="qVMzXbElNukYsMj70MFZ-7" edge="1">
          <mxGeometry relative="1" as="geometry" />
        </mxCell>
        <mxCell id="qVMzXbElNukYsMj70MFZ-25" style="edgeStyle=orthogonalEdgeStyle;rounded=0;orthogonalLoop=1;jettySize=auto;html=1;entryX=0.5;entryY=0;entryDx=0;entryDy=0;fontSize=24;" parent="1" source="qVMzXbElNukYsMj70MFZ-8" target="qVMzXbElNukYsMj70MFZ-9" edge="1">
          <mxGeometry relative="1" as="geometry" />
        </mxCell>
        <mxCell id="qVMzXbElNukYsMj70MFZ-8" value="&lt;font style=&quot;font-size: 24px;&quot;&gt;业务逻辑&lt;/font&gt;" style="rounded=1;whiteSpace=wrap;html=1;strokeWidth=2;fillWeight=4;hachureGap=8;hachureAngle=45;fillColor=#ffcd28;sketch=1;strokeColor=#d79b00;gradientColor=#ffa500;" parent="1" vertex="1">
          <mxGeometry x="320" y="-100" width="120" height="60" as="geometry" />
        </mxCell>
        <mxCell id="qVMzXbElNukYsMj70MFZ-24" value="" style="edgeStyle=orthogonalEdgeStyle;rounded=0;orthogonalLoop=1;jettySize=auto;html=1;fontSize=24;" parent="1" source="qVMzXbElNukYsMj70MFZ-9" target="qVMzXbElNukYsMj70MFZ-8" edge="1">
          <mxGeometry relative="1" as="geometry" />
        </mxCell>
        <mxCell id="qVMzXbElNukYsMj70MFZ-26" style="edgeStyle=orthogonalEdgeStyle;rounded=0;orthogonalLoop=1;jettySize=auto;html=1;fontSize=24;" parent="1" source="qVMzXbElNukYsMj70MFZ-9" target="qVMzXbElNukYsMj70MFZ-10" edge="1">
          <mxGeometry relative="1" as="geometry" />
        </mxCell>
        <mxCell id="qVMzXbElNukYsMj70MFZ-9" value="&lt;font style=&quot;font-size: 24px;&quot;&gt;后端路由&lt;/font&gt;" style="rounded=1;whiteSpace=wrap;html=1;strokeWidth=2;fillWeight=4;hachureGap=8;hachureAngle=45;fillColor=#fff2cc;sketch=1;strokeColor=#d6b656;gradientColor=#ffd966;" parent="1" vertex="1">
          <mxGeometry x="320" y="10" width="120" height="60" as="geometry" />
        </mxCell>
        <mxCell id="qVMzXbElNukYsMj70MFZ-19" value="" style="edgeStyle=orthogonalEdgeStyle;rounded=0;orthogonalLoop=1;jettySize=auto;html=1;fontSize=24;entryX=0.833;entryY=0;entryDx=0;entryDy=0;entryPerimeter=0;" parent="1" source="qVMzXbElNukYsMj70MFZ-10" target="qVMzXbElNukYsMj70MFZ-11" edge="1">
          <mxGeometry relative="1" as="geometry">
            <mxPoint x="380" y="230" as="targetPoint" />
          </mxGeometry>
        </mxCell>
        <mxCell id="qVMzXbElNukYsMj70MFZ-10" value="&lt;font style=&quot;font-size: 24px;&quot;&gt;请求解析&lt;/font&gt;" style="rounded=1;whiteSpace=wrap;html=1;strokeWidth=2;fillWeight=4;hachureGap=8;hachureAngle=45;fillColor=#e6d0de;sketch=1;strokeColor=#996185;gradientColor=#d5739d;" parent="1" vertex="1">
          <mxGeometry x="320" y="120" width="120" height="60" as="geometry" />
        </mxCell>
        <mxCell id="qVMzXbElNukYsMj70MFZ-20" style="edgeStyle=orthogonalEdgeStyle;rounded=0;orthogonalLoop=1;jettySize=auto;html=1;entryX=0.5;entryY=1;entryDx=0;entryDy=0;fontSize=24;" parent="1" target="qVMzXbElNukYsMj70MFZ-6" edge="1">
          <mxGeometry relative="1" as="geometry">
            <mxPoint x="140" y="230" as="sourcePoint" />
          </mxGeometry>
        </mxCell>
        <mxCell id="qVMzXbElNukYsMj70MFZ-11" value="&lt;span style=&quot;font-size: 24px;&quot;&gt;HTTP请求&lt;/span&gt;" style="rounded=1;whiteSpace=wrap;html=1;strokeWidth=2;fillWeight=4;hachureGap=8;hachureAngle=45;sketch=1;fillColor=#cdeb8b;strokeColor=#36393d;" parent="1" vertex="1">
          <mxGeometry x="80" y="240" width="360" height="60" as="geometry" />
        </mxCell>
      </root>
    </mxGraphModel>
  </diagram>
</mxfile>
